<?xml version="1.0" encoding="UTF-8"?>
<svg id="Layer_2" xmlns="http://www.w3.org/2000/svg" viewBox="0 0 237.76 125.25">
    <defs>
        <style>.cls-1{fill:#6cff96;}</style>
    </defs>
    <g id="Layer_1-2">
        <path class="cls-1"
            d="M142.53,91.29c2.73.25,7.5.31,12.74-1.82,4.53-1.84,7.33-4.44,10.31-7.28,2.49-2.37,5.93-6.12,9.1-11.52,1.31-2.16,3.14-5.46,4.85-9.7,1.23-3.05,1.98-5.57,3.03-9.1,2.71-9.13,2.41-10.59,4.25-13.34,1.29-1.94,3.69-4.6,8.49-6.67,6.09-1.57,11.08-1.86,14.56-1.82,7.35.08,11.83,1.65,21.23,1.21,2.83-.13,5.15-.4,6.67-.61-3.86-3.44-8.89-7.32-15.16-10.92-8.46-4.84-16.36-7.54-22.44-9.1-1.1-1.77-3.35-4.85-7.28-7.28C187.66.12,182.56-.04,180.44,0c-2.21.29-5.39.96-8.79,2.73-5.44,2.82-8.37,6.85-12.13,12.13-2.44,3.43-5.51,8.38-8.19,14.86-5.22-.31-12.75-.28-21.53,1.52-12.12,2.48-20.49,7.06-28.51,11.52-7.83,4.36-18.5,11.26-29.72,21.84-16.01,6.68-27.77,11.47-37,15.16-5.25,2.1-12.05,4.8-20.62,9.7-5.99,3.43-10.72,6.71-13.95,9.1,3.26-.98,8.1-2.44,13.95-4.25,11.69-3.6,18.42-5.8,21.23-6.67,8.18-2.54,20.37-5.42,37.6-6.67,11.2-.82,19.63.8,26.69,1.82,11.96,1.72,21.86,4.37,29.11,6.67" />
        <path class="cls-1"
            d="M128.58,83.4c.23,5.05.46,10.11.69,15.16.92,2.69,3.28,4.6,5.99,4.85,3.14.29,6.2-1.69,7.31-4.85v-12.75" />
        <path class="cls-1"
            d="M131.62,102.21c.29,2.64.51,5.47.61,8.49.07,2.33.07,4.56,0,6.67-1.62.4-3.23.81-4.85,1.21-.69.42-2.02,1.34-3.03,3.03-.88,1.47-1.13,2.86-1.21,3.64h35.79c.03-.6.04-2.45-1.21-4.25-1.06-1.53-2.45-2.19-3.03-2.43-.83-.43-2.07-.95-3.64-1.21-1.77-.3-3.26-.17-4.25,0-.49-.02-2.55-.15-4.25-1.82-1.09-1.08-1.47-2.31-1.82-3.64-.58-2.17-1.28-5.23-1.82-9.1" />
    </g>
</svg>