<?xml version="1.0" encoding="UTF-8"?><svg id="Layer_2" xmlns="http://www.w3.org/2000/svg" viewBox="0 0 1936.56 315.22"><defs><style>.cls-1{fill:#2e2e2e;}</style></defs><g id="Layer_1-2"><path class="cls-1" d="M.05,270.49c-.31-.71.7-2.22,2.82-3.2,5.48-2.81,10.96-5.62,16.44-8.43,11.87-18.67,18.31-27.72,19.32-27.15.86.49-2.21,7.93-9.21,22.35,17.22-6.42,26.04-9.17,26.45-8.23.42.96-8.02,5.8-25.32,14.51,15.35,5.45,22.88,8.69,22.59,9.71-.32,1.14-10.39-.48-30.19-4.86l-19.33,5.78c-1.76.43-3.27.17-3.56-.48Z"/><path class="cls-1" d="M35.17,191.92c.36.68,2.17.84,4.26-.2,5.62-2.52,11.24-5.04,16.86-7.57,21.99,2.4,33.08,3.03,33.27,1.88.16-.97-7.57-3.23-23.2-6.77,15.78-9.43,23.43-14.6,22.95-15.5-.49-.93-9.54,2.64-27.15,10.7,5.33-15.39,7.51-23.29,6.53-23.7-1.09-.46-6.12,8.41-15.07,26.61l-16.59,11.48c-1.44,1.11-2.18,2.45-1.85,3.07Z"/><path class="cls-1" d="M116.03,236.49c-.46-.62.17-2.32,2-3.76,4.68-4,9.36-8.01,14.04-12.01,7.22-20.91,11.38-31.21,12.5-30.89.95.27-.31,8.23-3.78,23.87,15.26-10.24,23.21-14.95,23.82-14.14.63.84-6.46,7.5-21.27,19.99,16.19,1.75,24.27,3.15,24.22,4.21-.05,1.18-10.21,1.94-30.5,2.27l-17.46,10.1c-1.61.83-3.15.93-3.57.36Z"/><path class="cls-1" d="M132.87,150.27c.57.52,2.33.08,3.96-1.59,4.48-4.22,8.96-8.45,13.44-12.67,21.56-4.94,32.25-7.98,32.05-9.13-.17-.97-8.21-.57-24.14,1.21,11.81-14.08,17.35-21.48,16.6-22.17-.76-.72-8.14,5.62-22.14,19.01,0-16.29-.54-24.46-1.6-24.53-1.18-.08-3.02,9.95-5.52,30.08l-11.91,16.29c-.99,1.52-1.26,3.03-.74,3.51Z"/><path class="cls-1" d="M219.97,157.75c-.57-.52-.29-2.31,1.22-4.08,3.8-4.84,7.61-9.69,11.41-14.53,2.98-21.92,5.05-32.83,6.21-32.74.98.08,1.31,8.13.97,24.15,12.96-13.03,19.83-19.21,20.59-18.53.78.7-4.86,8.62-16.95,23.76,16.22-1.46,24.41-1.66,24.58-.61.18,1.17-9.64,3.9-29.46,8.2l-15.15,13.33c-1.42,1.13-2.9,1.53-3.43,1.05Z"/><path class="cls-1" d="M191.08,71.85c.68.37,2.28-.48,3.46-2.48,3.35-5.17,6.69-10.34,10.04-15.51,19.76-9.93,29.42-15.43,28.95-16.5-.4-.9-8.11,1.4-23.16,6.92,8.12-16.49,11.73-24.99,10.84-25.49-.91-.51-6.57,7.4-16.98,23.74-3.89-15.81-6.35-23.63-7.4-23.45-1.17.21-.57,10.38,1.81,30.53l-7.69,18.65c-.61,1.71-.5,3.24.12,3.59Z"/><path class="cls-1" d="M284.29,58.02c-.73-.25-1.18-2.01-.5-4.23,1.57-5.96,3.14-11.91,4.71-17.87-5.96-21.3-8.39-32.14-7.29-32.51.94-.32,4.42,6.94,10.47,21.78C298.42,8.08,302.27-.31,303.24,0c.99.33-1.05,9.84-6.13,28.54,14.31-7.77,21.75-11.21,22.32-10.31.63,1-7.3,7.41-23.79,19.21l-8.62,18.24c-.86,1.6-2.06,2.55-2.73,2.32Z"/><path class="cls-1" d="M1936.56,46.25c-.06.77-1.65,1.64-3.98,1.53-6.16-.05-12.32-.1-18.48-.15-19.17,11.04-29.07,16.07-29.7,15.1-.54-.83,5.64-6,18.52-15.53-18.24-2.3-27.32-3.95-27.25-4.97.07-1.05,9.79-1.42,29.17-1.12-11.07-11.95-16.24-18.31-15.51-19.08.82-.86,8.98,5.24,24.5,18.31l19.81,3.84c1.76.44,2.98,1.36,2.93,2.07Z"/><path class="cls-1" d="M1869.02,99.57c0-.77-1.54-1.75-3.87-1.8-6.15-.37-12.3-.74-18.44-1.11-18.37-12.33-27.9-18.03-28.6-17.1-.59.79,5.21,6.38,17.41,16.76-18.35,1.04-27.53,2.07-27.53,3.09,0,1.05,9.67,2.09,29.02,3.11-11.86,11.16-17.45,17.15-16.78,17.97.75.91,9.32-4.61,25.69-16.58l20.02-2.48c1.79-.31,3.07-1.16,3.06-1.87Z"/><path class="cls-1" d="M1818.05,22.59c.12.76-1.23,1.98-3.52,2.41-6,1.38-12.01,2.76-18.01,4.13-16.09,15.18-24.56,22.37-25.4,21.57-.71-.68,4.09-7.15,14.42-19.4-18.27,1.99-27.49,2.49-27.66,1.48-.17-1.03,9.2-3.65,28.11-7.84-13.53-9.06-20.04-14.05-19.5-14.97.59-1.03,9.95,3.02,28.07,12.13l20.16-.85c1.81.02,3.22.64,3.33,1.34Z"/><path class="cls-1" d="M1763.14,91.16c-.26-.73-2.02-1.15-4.24-.43-5.93,1.66-11.86,3.33-17.79,4.99-21.39-5.62-32.27-7.88-32.62-6.77-.3.94,7.01,4.32,21.95,10.13-17,7-25.33,10.98-24.99,11.95.34.99,9.82-1.2,28.44-6.57-7.55,14.43-10.87,21.93-9.96,22.48,1.01.62,7.29-7.41,18.84-24.09l18.1-8.91c1.58-.88,2.52-2.1,2.28-2.77Z"/><path class="cls-1" d="M1689.45,44.14c.27.72-.82,2.18-2.98,3.05-5.62,2.53-11.23,5.05-16.85,7.58-12.81,18.04-19.7,26.74-20.68,26.12-.83-.53,2.61-7.81,10.34-21.84-17.53,5.53-26.48,7.82-26.84,6.87-.37-.98,8.31-5.38,26.03-13.2-15.05-6.23-22.4-9.85-22.06-10.86.38-1.12,10.35,1.01,29.9,6.4l19.6-4.78c1.78-.34,3.28,0,3.53.66Z"/><path class="cls-1" d="M1675.2,133.64c-.42-.65-2.24-.63-4.22.59-5.36,3.03-10.73,6.06-16.09,9.09-22.12-.37-33.22.03-33.3,1.19-.07.98,7.84,2.52,23.72,4.61-14.84,10.85-21.98,16.7-21.43,17.55.57.88,9.25-3.51,26.05-13.16-3.89,15.81-5.33,23.88-4.32,24.2,1.13.36,5.32-8.94,12.56-27.88l15.46-12.96c1.33-1.23,1.95-2.64,1.56-3.23Z"/><path class="cls-1" d="M1586.21,102.67c.53.56.11,2.32-1.52,3.98-4.15,4.55-8.31,9.09-12.46,13.64-4.6,21.64-7.48,32.37-8.62,32.19-.98-.15-.7-8.2.83-24.15-13.9,12.03-21.2,17.68-21.91,16.95-.73-.75,5.49-8.23,18.66-22.44-16.28.25-24.47-.16-24.56-1.22-.1-1.18,9.9-3.18,29.99-5.99l16.1-12.16c1.5-1.02,3.01-1.31,3.5-.79Z"/><path class="cls-1" d="M1604.21,194.75c-.45-.63-2.26-.54-4.19.77-5.23,3.25-10.46,6.5-15.7,9.75-22.11.55-33.19,1.41-33.22,2.57-.03.99,7.94,2.19,23.9,3.62-14.38,11.45-21.27,17.6-20.68,18.43.61.85,9.1-3.89,25.48-14.23-3.23,15.96-4.34,24.08-3.31,24.36,1.14.31,4.94-9.15,11.39-28.38l14.91-13.59c1.28-1.29,1.84-2.72,1.42-3.29Z"/><path class="cls-1" d="M1518.78,184.38c.4.66-.4,2.29-2.37,3.55-5.06,3.52-10.11,7.03-15.17,10.55-9.27,20.09-14.44,29.92-15.52,29.48-.92-.37,1.13-8.16,6.14-23.37-16.21,8.66-24.58,12.56-25.11,11.69-.54-.9,7.17-6.82,23.16-17.76-15.94-3.36-23.83-5.56-23.68-6.61.17-1.17,10.36-.91,30.57.79l18.39-8.31c1.69-.66,3.22-.61,3.59,0Z"/><path class="cls-1" d="M1515.32,276.64c-.29-.71-2.08-1.05-4.26-.22-5.84,1.95-11.69,3.9-17.53,5.84-21.64-4.59-32.61-6.32-32.91-5.2-.25.95,7.21,3.97,22.41,9.06-16.64,7.81-24.77,12.19-24.39,13.13.39.97,9.75-1.67,28.09-7.94-6.84,14.78-9.8,22.42-8.86,22.93,1.04.57,6.93-7.75,17.66-24.97l17.65-9.77c1.54-.96,2.42-2.22,2.15-2.88Z"/><path class="cls-1" d="M1432.75,246.67c.16.76-1.13,2.03-3.4,2.57-5.93,1.66-11.86,3.33-17.79,4.99-15.34,15.94-23.45,23.53-24.33,22.77-.75-.65,3.74-7.33,13.47-20.07-18.16,2.87-27.34,3.81-27.56,2.81-.22-1.02,9.01-4.09,27.7-9.19-13.95-8.4-20.69-13.07-20.2-14.01.54-1.05,10.08,2.53,28.62,10.77l20.09-1.82c1.81-.07,3.24.48,3.39,1.18Z"/><path class="cls-1" d="M1324.98,278.46c.27.72-.82,2.18-2.98,3.05-5.62,2.52-11.24,5.05-16.85,7.57-12.82,18.03-19.71,26.74-20.69,26.12-.83-.53,2.62-7.81,10.35-21.84-17.53,5.52-26.48,7.81-26.84,6.86-.37-.98,8.31-5.37,26.04-13.19-15.04-6.24-22.4-9.86-22.05-10.87.38-1.12,10.35,1.01,29.9,6.41l19.6-4.77c1.78-.34,3.28,0,3.53.66Z"/></g></svg>