<?xml version="1.0" encoding="UTF-8"?><svg id="Layer_2" xmlns="http://www.w3.org/2000/svg" xmlns:xlink="http://www.w3.org/1999/xlink" viewBox="0 0 2042.83 671.39"><defs><style>.cls-1{stroke:url(#linear-gradient-73);}.cls-1,.cls-2,.cls-3,.cls-4,.cls-5,.cls-6,.cls-7,.cls-8,.cls-9,.cls-10,.cls-11,.cls-12,.cls-13,.cls-14,.cls-15,.cls-16,.cls-17,.cls-18,.cls-19,.cls-20,.cls-21,.cls-22,.cls-23,.cls-24,.cls-25,.cls-26,.cls-27,.cls-28,.cls-29,.cls-30,.cls-31,.cls-32,.cls-33,.cls-34,.cls-35,.cls-36,.cls-37,.cls-38,.cls-39,.cls-40,.cls-41,.cls-42,.cls-43,.cls-44,.cls-45,.cls-46,.cls-47,.cls-48,.cls-49,.cls-50,.cls-51,.cls-52,.cls-53,.cls-54,.cls-55,.cls-56,.cls-57,.cls-58,.cls-59,.cls-60,.cls-61,.cls-62,.cls-63,.cls-64,.cls-65,.cls-66,.cls-67,.cls-68,.cls-69,.cls-70,.cls-71,.cls-72,.cls-73,.cls-74,.cls-75,.cls-76,.cls-77,.cls-78,.cls-79,.cls-80,.cls-81,.cls-82,.cls-83,.cls-84,.cls-85,.cls-86,.cls-87,.cls-88,.cls-89,.cls-90,.cls-91,.cls-92,.cls-93,.cls-94,.cls-95,.cls-96,.cls-97,.cls-98,.cls-99,.cls-100,.cls-101,.cls-102,.cls-103,.cls-104{fill:none;stroke-miterlimit:10;}.cls-1,.cls-2,.cls-4,.cls-5,.cls-6,.cls-7,.cls-10,.cls-12,.cls-13,.cls-16,.cls-17,.cls-19,.cls-20,.cls-23,.cls-24,.cls-26,.cls-28,.cls-29,.cls-30,.cls-32,.cls-34,.cls-35,.cls-39,.cls-40,.cls-44,.cls-45,.cls-46,.cls-48,.cls-50,.cls-53,.cls-54,.cls-55,.cls-56,.cls-57,.cls-58,.cls-60,.cls-64,.cls-65,.cls-69,.cls-71,.cls-73,.cls-76,.cls-78,.cls-83,.cls-84,.cls-86,.cls-94,.cls-95,.cls-98,.cls-99,.cls-100,.cls-101{stroke-width:.25px;}.cls-2{stroke:url(#linear-gradient-60);}.cls-3{stroke:url(#linear-gradient-11);}.cls-4{stroke:url(#linear-gradient-80);}.cls-5{stroke:url(#linear-gradient-99);}.cls-6{stroke:url(#linear-gradient-84);}.cls-7{stroke:url(#linear-gradient-78);}.cls-8{stroke:url(#linear-gradient-46);}.cls-9{stroke:url(#linear-gradient-10);}.cls-10{stroke:url(#linear-gradient-90);}.cls-11{stroke:url(#linear-gradient-15);}.cls-12{stroke:url(#linear-gradient-59);}.cls-13{stroke:url(#linear-gradient-69);}.cls-14{stroke:url(#linear-gradient-12);}.cls-15{stroke:url(#linear-gradient-6);}.cls-16{stroke:url(#linear-gradient-55);}.cls-17{stroke:url(#linear-gradient-87);}.cls-18{stroke:url(#linear-gradient);}.cls-19{stroke:url(#linear-gradient-61);}.cls-20{stroke:url(#linear-gradient-65);}.cls-21{stroke:url(#linear-gradient-26);}.cls-22{stroke:url(#linear-gradient-23);}.cls-23{stroke:url(#linear-gradient-57);}.cls-24{stroke:url(#linear-gradient-75);}.cls-25{stroke:url(#linear-gradient-39);}.cls-26{stroke:url(#linear-gradient-54);}.cls-27{stroke:url(#linear-gradient-50);}.cls-28{stroke:url(#linear-gradient-102);}.cls-29{stroke:url(#linear-gradient-96);}.cls-30{stroke:url(#linear-gradient-64);}.cls-31{stroke:url(#linear-gradient-45);}.cls-32{stroke:url(#linear-gradient-103);}.cls-33{stroke:url(#linear-gradient-41);}.cls-34{stroke:url(#linear-gradient-86);}.cls-35{stroke:url(#linear-gradient-83);}.cls-36{stroke:url(#linear-gradient-35);}.cls-37{stroke:url(#linear-gradient-44);}.cls-38{stroke:url(#linear-gradient-16);}.cls-39{stroke:url(#linear-gradient-101);}.cls-40{stroke:url(#linear-gradient-62);}.cls-41{stroke:url(#linear-gradient-32);}.cls-42{stroke:url(#linear-gradient-33);}.cls-43{stroke:url(#linear-gradient-13);}.cls-44{stroke:url(#linear-gradient-88);}.cls-45{stroke:url(#linear-gradient-81);}.cls-46{stroke:url(#linear-gradient-98);}.cls-47{stroke:url(#linear-gradient-37);}.cls-48{stroke:url(#linear-gradient-63);}.cls-49{stroke:url(#linear-gradient-24);}.cls-50{stroke:url(#linear-gradient-70);}.cls-51{stroke:url(#linear-gradient-48);}.cls-52{stroke:url(#linear-gradient-38);}.cls-53{stroke:url(#linear-gradient-89);}.cls-54{stroke:url(#linear-gradient-58);}.cls-55{stroke:url(#linear-gradient-94);}.cls-56{stroke:url(#linear-gradient-67);}.cls-57{stroke:url(#linear-gradient-92);}.cls-58{stroke:url(#linear-gradient-93);}.cls-59{stroke:url(#linear-gradient-30);}.cls-60{stroke:url(#linear-gradient-100);}.cls-61{stroke:url(#linear-gradient-36);}.cls-62{stroke:url(#linear-gradient-4);}.cls-63{stroke:url(#linear-gradient-2);}.cls-64{stroke:url(#linear-gradient-95);}.cls-65{stroke:url(#linear-gradient-91);}.cls-66{stroke:url(#linear-gradient-34);}.cls-67{stroke:url(#linear-gradient-51);}.cls-68{stroke:url(#linear-gradient-40);}.cls-69{stroke:url(#linear-gradient-85);}.cls-70{stroke:url(#linear-gradient-31);}.cls-71{stroke:url(#linear-gradient-79);}.cls-72{stroke:url(#linear-gradient-9);}.cls-73{stroke:url(#linear-gradient-71);}.cls-74{stroke:url(#linear-gradient-5);}.cls-75{stroke:url(#linear-gradient-25);}.cls-76{stroke:url(#linear-gradient-72);}.cls-77{stroke:url(#linear-gradient-8);}.cls-78{stroke:url(#linear-gradient-77);}.cls-79{stroke:url(#linear-gradient-22);}.cls-80{stroke:url(#linear-gradient-28);}.cls-81{stroke:url(#linear-gradient-3);}.cls-82{stroke:url(#linear-gradient-19);}.cls-83{stroke:url(#linear-gradient-66);}.cls-84{stroke:url(#linear-gradient-74);}.cls-85{stroke:url(#linear-gradient-42);}.cls-86{stroke:url(#linear-gradient-76);}.cls-87{stroke:url(#linear-gradient-52);}.cls-88{stroke:url(#linear-gradient-29);}.cls-89{stroke:url(#linear-gradient-17);}.cls-90{stroke:url(#linear-gradient-21);}.cls-91{stroke:url(#linear-gradient-47);}.cls-92{stroke:url(#linear-gradient-7);}.cls-93{stroke:url(#linear-gradient-43);}.cls-94{stroke:url(#linear-gradient-56);}.cls-95{stroke:url(#linear-gradient-53);}.cls-96{stroke:url(#linear-gradient-20);}.cls-97{stroke:url(#linear-gradient-49);}.cls-98{stroke:url(#linear-gradient-82);}.cls-99{stroke:url(#linear-gradient-68);}.cls-100{stroke:url(#linear-gradient-97);}.cls-101{stroke:url(#linear-gradient-104);}.cls-102{stroke:url(#linear-gradient-27);}.cls-103{stroke:url(#linear-gradient-14);}.cls-104{stroke:url(#linear-gradient-18);}</style><linearGradient id="linear-gradient" x1=".3" y1="472.27" x2="2020.45" y2="472.27" gradientUnits="userSpaceOnUse"><stop offset="0" stop-color="#0a0a0a"/><stop offset=".02" stop-color="#0c110e"/><stop offset=".06" stop-color="#152519"/><stop offset=".1" stop-color="#22472d"/><stop offset=".14" stop-color="#357647"/><stop offset=".19" stop-color="#4db26a"/><stop offset=".24" stop-color="#6afa93"/><stop offset=".24" stop-color="#6cff96"/><stop offset=".26" stop-color="#5edc82"/><stop offset=".3" stop-color="#4aaa65"/><stop offset=".33" stop-color="#39804e"/><stop offset=".37" stop-color="#2c603b"/><stop offset=".4" stop-color="#23492e"/><stop offset=".43" stop-color="#1d3b26"/><stop offset=".46" stop-color="#1c3724"/><stop offset=".48" stop-color="#204129"/><stop offset=".51" stop-color="#2b5d39"/><stop offset=".56" stop-color="#3d8a53"/><stop offset=".62" stop-color="#56c977"/><stop offset=".66" stop-color="#6cff96"/><stop offset=".74" stop-color="#4fb96d"/><stop offset=".83" stop-color="#326f43"/><stop offset=".91" stop-color="#1c3924"/><stop offset=".97" stop-color="#0f1711"/><stop offset="1" stop-color="#0a0b0a"/></linearGradient><linearGradient id="linear-gradient-2" x1=".29" y1="465.84" x2="2020.44" y2="465.84" xlink:href="#linear-gradient"/><linearGradient id="linear-gradient-3" x1=".29" y1="459.4" x2="2020.44" y2="459.4" xlink:href="#linear-gradient"/><linearGradient id="linear-gradient-4" x1=".28" y1="452.97" x2="2020.43" y2="452.97" xlink:href="#linear-gradient"/><linearGradient id="linear-gradient-5" x1=".27" y1="446.54" x2="2020.43" y2="446.54" xlink:href="#linear-gradient"/><linearGradient id="linear-gradient-6" x1=".27" y1="440.1" x2="2020.42" y2="440.1" xlink:href="#linear-gradient"/><linearGradient id="linear-gradient-7" x1=".26" y1="433.67" x2="2020.42" y2="433.67" xlink:href="#linear-gradient"/><linearGradient id="linear-gradient-8" x1=".26" y1="427.23" x2="2020.41" y2="427.23" xlink:href="#linear-gradient"/><linearGradient id="linear-gradient-9" x1=".25" y1="420.8" x2="2020.4" y2="420.8" xlink:href="#linear-gradient"/><linearGradient id="linear-gradient-10" x1=".24" y1="414.37" x2="2020.4" y2="414.37" xlink:href="#linear-gradient"/><linearGradient id="linear-gradient-11" x1=".24" y1="407.93" x2="2020.39" y2="407.93" xlink:href="#linear-gradient"/><linearGradient id="linear-gradient-12" x1=".23" y1="401.5" x2="2020.39" y2="401.5" xlink:href="#linear-gradient"/><linearGradient id="linear-gradient-13" x1=".23" y1="395.07" x2="2020.38" y2="395.07" xlink:href="#linear-gradient"/><linearGradient id="linear-gradient-14" x1=".22" y1="388.63" x2="2020.37" y2="388.63" xlink:href="#linear-gradient"/><linearGradient id="linear-gradient-15" x1=".22" y1="382.2" x2="2020.37" y2="382.2" xlink:href="#linear-gradient"/><linearGradient id="linear-gradient-16" x1=".21" y1="375.76" x2="2020.36" y2="375.76" xlink:href="#linear-gradient"/><linearGradient id="linear-gradient-17" x1=".2" y1="369.33" x2="2020.36" y2="369.33" xlink:href="#linear-gradient"/><linearGradient id="linear-gradient-18" x1=".2" y1="362.9" x2="2020.35" y2="362.9" xlink:href="#linear-gradient"/><linearGradient id="linear-gradient-19" x1=".19" y1="356.46" x2="2020.35" y2="356.46" xlink:href="#linear-gradient"/><linearGradient id="linear-gradient-20" x1=".19" y1="350.03" x2="2020.34" y2="350.03" xlink:href="#linear-gradient"/><linearGradient id="linear-gradient-21" x1=".18" y1="343.6" x2="2020.33" y2="343.6" xlink:href="#linear-gradient"/><linearGradient id="linear-gradient-22" x1=".17" y1="337.16" x2="2020.33" y2="337.16" xlink:href="#linear-gradient"/><linearGradient id="linear-gradient-23" x1=".17" y1="330.73" x2="2020.32" y2="330.73" xlink:href="#linear-gradient"/><linearGradient id="linear-gradient-24" x1=".16" y1="324.29" x2="2020.32" y2="324.29" xlink:href="#linear-gradient"/><linearGradient id="linear-gradient-25" x1=".16" y1="317.86" x2="2020.31" y2="317.86" xlink:href="#linear-gradient"/><linearGradient id="linear-gradient-26" x1=".15" y1="311.43" x2="2020.3" y2="311.43" xlink:href="#linear-gradient"/><linearGradient id="linear-gradient-27" x1=".15" y1="304.99" x2="2020.3" y2="304.99" xlink:href="#linear-gradient"/><linearGradient id="linear-gradient-28" x1=".14" y1="298.56" x2="2020.29" y2="298.56" xlink:href="#linear-gradient"/><linearGradient id="linear-gradient-29" x1=".13" y1="292.13" x2="2020.29" y2="292.13" xlink:href="#linear-gradient"/><linearGradient id="linear-gradient-30" x1=".13" y1="285.69" x2="2020.28" y2="285.69" xlink:href="#linear-gradient"/><linearGradient id="linear-gradient-31" x1=".12" y1="279.26" x2="2020.28" y2="279.26" xlink:href="#linear-gradient"/><linearGradient id="linear-gradient-32" x1=".12" y1="272.82" x2="2020.27" y2="272.82" xlink:href="#linear-gradient"/><linearGradient id="linear-gradient-33" x1=".11" y1="266.39" x2="2020.26" y2="266.39" xlink:href="#linear-gradient"/><linearGradient id="linear-gradient-34" x1=".1" y1="259.96" x2="2020.26" y2="259.96" xlink:href="#linear-gradient"/><linearGradient id="linear-gradient-35" x1=".1" y1="253.52" x2="2020.25" y2="253.52" xlink:href="#linear-gradient"/><linearGradient id="linear-gradient-36" x1=".09" y1="247.09" x2="2020.25" y2="247.09" xlink:href="#linear-gradient"/><linearGradient id="linear-gradient-37" x1=".09" y1="240.66" x2="2020.24" y2="240.66" xlink:href="#linear-gradient"/><linearGradient id="linear-gradient-38" x1=".08" y1="234.22" x2="2020.23" y2="234.22" xlink:href="#linear-gradient"/><linearGradient id="linear-gradient-39" x1=".08" y1="227.79" x2="2020.23" y2="227.79" xlink:href="#linear-gradient"/><linearGradient id="linear-gradient-40" x1=".07" y1="221.35" x2="2020.22" y2="221.35" xlink:href="#linear-gradient"/><linearGradient id="linear-gradient-41" x1=".06" y1="214.92" x2="2020.22" y2="214.92" xlink:href="#linear-gradient"/><linearGradient id="linear-gradient-42" x1=".06" y1="208.49" x2="2020.21" y2="208.49" xlink:href="#linear-gradient"/><linearGradient id="linear-gradient-43" x1=".05" y1="202.05" x2="2020.21" y2="202.05" xlink:href="#linear-gradient"/><linearGradient id="linear-gradient-44" x1=".05" y1="195.62" x2="2020.2" y2="195.62" xlink:href="#linear-gradient"/><linearGradient id="linear-gradient-45" x1=".04" y1="189.19" x2="2020.19" y2="189.19" xlink:href="#linear-gradient"/><linearGradient id="linear-gradient-46" x1=".03" y1="182.75" x2="2020.19" y2="182.75" xlink:href="#linear-gradient"/><linearGradient id="linear-gradient-47" x1=".03" y1="176.32" x2="2020.18" y2="176.32" xlink:href="#linear-gradient"/><linearGradient id="linear-gradient-48" x1=".02" y1="169.88" x2="2020.18" y2="169.88" xlink:href="#linear-gradient"/><linearGradient id="linear-gradient-49" x1=".02" y1="163.45" x2="2020.17" y2="163.45" xlink:href="#linear-gradient"/><linearGradient id="linear-gradient-50" x1=".01" y1="157.02" x2="2020.16" y2="157.02" xlink:href="#linear-gradient"/><linearGradient id="linear-gradient-51" x1="0" y1="150.58" x2="2020.16" y2="150.58" xlink:href="#linear-gradient"/><linearGradient id="linear-gradient-52" x1="0" y1="144.15" x2="2020.15" y2="144.15" xlink:href="#linear-gradient"/><linearGradient id="linear-gradient-53" x1="206.87" y1="557.4" x2="2226.86" y2="557.4" gradientTransform="translate(2249.4) rotate(-180) scale(1 -1)" xlink:href="#linear-gradient"/><linearGradient id="linear-gradient-54" x1="206.86" y1="552.3" x2="2226.86" y2="552.3" gradientTransform="translate(2249.4) rotate(-180) scale(1 -1)" xlink:href="#linear-gradient"/><linearGradient id="linear-gradient-55" x1="206.86" y1="547.2" x2="2226.85" y2="547.2" gradientTransform="translate(2249.4) rotate(-180) scale(1 -1)" xlink:href="#linear-gradient"/><linearGradient id="linear-gradient-56" x1="206.85" y1="542.1" x2="2226.84" y2="542.1" gradientTransform="translate(2249.4) rotate(-180) scale(1 -1)" xlink:href="#linear-gradient"/><linearGradient id="linear-gradient-57" x1="206.85" y1="537" x2="2226.84" y2="537" gradientTransform="translate(2249.4) rotate(-180) scale(1 -1)" xlink:href="#linear-gradient"/><linearGradient id="linear-gradient-58" x1="206.84" y1="531.89" x2="2226.83" y2="531.89" gradientTransform="translate(2249.4) rotate(-180) scale(1 -1)" xlink:href="#linear-gradient"/><linearGradient id="linear-gradient-59" x1="206.83" y1="526.79" x2="2226.83" y2="526.79" gradientTransform="translate(2249.4) rotate(-180) scale(1 -1)" xlink:href="#linear-gradient"/><linearGradient id="linear-gradient-60" x1="206.83" y1="521.69" x2="2226.82" y2="521.69" gradientTransform="translate(2249.4) rotate(-180) scale(1 -1)" xlink:href="#linear-gradient"/><linearGradient id="linear-gradient-61" x1="206.82" y1="516.59" x2="2226.81" y2="516.59" gradientTransform="translate(2249.4) rotate(-180) scale(1 -1)" xlink:href="#linear-gradient"/><linearGradient id="linear-gradient-62" x1="206.82" y1="511.49" x2="2226.81" y2="511.49" gradientTransform="translate(2249.4) rotate(-180) scale(1 -1)" xlink:href="#linear-gradient"/><linearGradient id="linear-gradient-63" x1="206.81" y1="506.39" x2="2226.8" y2="506.39" gradientTransform="translate(2249.4) rotate(-180) scale(1 -1)" xlink:href="#linear-gradient"/><linearGradient id="linear-gradient-64" x1="206.81" y1="501.29" x2="2226.8" y2="501.29" gradientTransform="translate(2249.4) rotate(-180) scale(1 -1)" xlink:href="#linear-gradient"/><linearGradient id="linear-gradient-65" x1="206.8" y1="496.19" x2="2226.79" y2="496.19" gradientTransform="translate(2249.4) rotate(-180) scale(1 -1)" xlink:href="#linear-gradient"/><linearGradient id="linear-gradient-66" x1="206.79" y1="491.09" x2="2226.79" y2="491.09" gradientTransform="translate(2249.4) rotate(-180) scale(1 -1)" xlink:href="#linear-gradient"/><linearGradient id="linear-gradient-67" x1="206.79" y1="485.99" x2="2226.78" y2="485.99" gradientTransform="translate(2249.4) rotate(-180) scale(1 -1)" xlink:href="#linear-gradient"/><linearGradient id="linear-gradient-68" x1="206.78" y1="480.89" x2="2226.77" y2="480.89" gradientTransform="translate(2249.4) rotate(-180) scale(1 -1)" xlink:href="#linear-gradient"/><linearGradient id="linear-gradient-69" x1="206.78" y1="475.79" x2="2226.77" y2="475.79" gradientTransform="translate(2249.4) rotate(-180) scale(1 -1)" xlink:href="#linear-gradient"/><linearGradient id="linear-gradient-70" x1="206.77" y1="470.69" x2="2226.76" y2="470.69" gradientTransform="translate(2249.4) rotate(-180) scale(1 -1)" xlink:href="#linear-gradient"/><linearGradient id="linear-gradient-71" x1="206.76" y1="465.59" x2="2226.76" y2="465.59" gradientTransform="translate(2249.4) rotate(-180) scale(1 -1)" xlink:href="#linear-gradient"/><linearGradient id="linear-gradient-72" x1="206.76" y1="460.49" x2="2226.75" y2="460.49" gradientTransform="translate(2249.4) rotate(-180) scale(1 -1)" xlink:href="#linear-gradient"/><linearGradient id="linear-gradient-73" x1="206.75" y1="455.39" x2="2226.74" y2="455.39" gradientTransform="translate(2249.4) rotate(-180) scale(1 -1)" xlink:href="#linear-gradient"/><linearGradient id="linear-gradient-74" x1="206.75" y1="450.29" x2="2226.74" y2="450.29" gradientTransform="translate(2249.4) rotate(-180) scale(1 -1)" xlink:href="#linear-gradient"/><linearGradient id="linear-gradient-75" x1="206.74" y1="445.19" x2="2226.73" y2="445.19" gradientTransform="translate(2249.4) rotate(-180) scale(1 -1)" xlink:href="#linear-gradient"/><linearGradient id="linear-gradient-76" x1="206.74" y1="440.09" x2="2226.73" y2="440.09" gradientTransform="translate(2249.4) rotate(-180) scale(1 -1)" xlink:href="#linear-gradient"/><linearGradient id="linear-gradient-77" x1="206.73" y1="434.99" x2="2226.72" y2="434.99" gradientTransform="translate(2249.4) rotate(-180) scale(1 -1)" xlink:href="#linear-gradient"/><linearGradient id="linear-gradient-78" x1="206.72" y1="429.89" x2="2226.72" y2="429.89" gradientTransform="translate(2249.4) rotate(-180) scale(1 -1)" xlink:href="#linear-gradient"/><linearGradient id="linear-gradient-79" x1="206.72" y1="424.79" x2="2226.71" y2="424.79" gradientTransform="translate(2249.4) rotate(-180) scale(1 -1)" xlink:href="#linear-gradient"/><linearGradient id="linear-gradient-80" x1="206.71" y1="419.69" x2="2226.7" y2="419.69" gradientTransform="translate(2249.4) rotate(-180) scale(1 -1)" xlink:href="#linear-gradient"/><linearGradient id="linear-gradient-81" x1="206.71" y1="414.59" x2="2226.7" y2="414.59" gradientTransform="translate(2249.4) rotate(-180) scale(1 -1)" xlink:href="#linear-gradient"/><linearGradient id="linear-gradient-82" x1="206.7" y1="409.49" x2="2226.69" y2="409.49" gradientTransform="translate(2249.4) rotate(-180) scale(1 -1)" xlink:href="#linear-gradient"/><linearGradient id="linear-gradient-83" x1="206.69" y1="404.39" x2="2226.69" y2="404.39" gradientTransform="translate(2249.4) rotate(-180) scale(1 -1)" xlink:href="#linear-gradient"/><linearGradient id="linear-gradient-84" x1="206.69" y1="399.29" x2="2226.68" y2="399.29" gradientTransform="translate(2249.4) rotate(-180) scale(1 -1)" xlink:href="#linear-gradient"/><linearGradient id="linear-gradient-85" x1="206.68" y1="394.19" x2="2226.67" y2="394.19" gradientTransform="translate(2249.4) rotate(-180) scale(1 -1)" xlink:href="#linear-gradient"/><linearGradient id="linear-gradient-86" x1="206.68" y1="389.09" x2="2226.67" y2="389.09" gradientTransform="translate(2249.4) rotate(-180) scale(1 -1)" xlink:href="#linear-gradient"/><linearGradient id="linear-gradient-87" x1="206.67" y1="383.99" x2="2226.66" y2="383.99" gradientTransform="translate(2249.4) rotate(-180) scale(1 -1)" xlink:href="#linear-gradient"/><linearGradient id="linear-gradient-88" x1="206.67" y1="378.89" x2="2226.66" y2="378.89" gradientTransform="translate(2249.4) rotate(-180) scale(1 -1)" xlink:href="#linear-gradient"/><linearGradient id="linear-gradient-89" x1="206.66" y1="373.79" x2="2226.65" y2="373.79" gradientTransform="translate(2249.4) rotate(-180) scale(1 -1)" xlink:href="#linear-gradient"/><linearGradient id="linear-gradient-90" x1="206.65" y1="368.69" x2="2226.65" y2="368.69" gradientTransform="translate(2249.4) rotate(-180) scale(1 -1)" xlink:href="#linear-gradient"/><linearGradient id="linear-gradient-91" x1="206.65" y1="363.59" x2="2226.64" y2="363.59" gradientTransform="translate(2249.4) rotate(-180) scale(1 -1)" xlink:href="#linear-gradient"/><linearGradient id="linear-gradient-92" x1="206.64" y1="358.49" x2="2226.63" y2="358.49" gradientTransform="translate(2249.4) rotate(-180) scale(1 -1)" xlink:href="#linear-gradient"/><linearGradient id="linear-gradient-93" x1="206.64" y1="353.39" x2="2226.63" y2="353.39" gradientTransform="translate(2249.4) rotate(-180) scale(1 -1)" xlink:href="#linear-gradient"/><linearGradient id="linear-gradient-94" x1="206.63" y1="348.29" x2="2226.62" y2="348.29" gradientTransform="translate(2249.4) rotate(-180) scale(1 -1)" xlink:href="#linear-gradient"/><linearGradient id="linear-gradient-95" x1="206.63" y1="343.19" x2="2226.62" y2="343.19" gradientTransform="translate(2249.4) rotate(-180) scale(1 -1)" xlink:href="#linear-gradient"/><linearGradient id="linear-gradient-96" x1="206.62" y1="338.09" x2="2226.61" y2="338.09" gradientTransform="translate(2249.4) rotate(-180) scale(1 -1)" xlink:href="#linear-gradient"/><linearGradient id="linear-gradient-97" x1="206.61" y1="332.99" x2="2226.6" y2="332.99" gradientTransform="translate(2249.4) rotate(-180) scale(1 -1)" xlink:href="#linear-gradient"/><linearGradient id="linear-gradient-98" x1="206.61" y1="327.89" x2="2226.6" y2="327.89" gradientTransform="translate(2249.4) rotate(-180) scale(1 -1)" xlink:href="#linear-gradient"/><linearGradient id="linear-gradient-99" x1="206.6" y1="322.79" x2="2226.59" y2="322.79" gradientTransform="translate(2249.4) rotate(-180) scale(1 -1)" xlink:href="#linear-gradient"/><linearGradient id="linear-gradient-100" x1="206.6" y1="317.69" x2="2226.59" y2="317.69" gradientTransform="translate(2249.4) rotate(-180) scale(1 -1)" xlink:href="#linear-gradient"/><linearGradient id="linear-gradient-101" x1="206.59" y1="312.59" x2="2226.58" y2="312.59" gradientTransform="translate(2249.4) rotate(-180) scale(1 -1)" xlink:href="#linear-gradient"/><linearGradient id="linear-gradient-102" x1="206.58" y1="307.49" x2="2226.58" y2="307.49" gradientTransform="translate(2249.4) rotate(-180) scale(1 -1)" xlink:href="#linear-gradient"/><linearGradient id="linear-gradient-103" x1="206.58" y1="302.39" x2="2226.57" y2="302.39" gradientTransform="translate(2249.4) rotate(-180) scale(1 -1)" xlink:href="#linear-gradient"/><linearGradient id="linear-gradient-104" x1="206.57" y1="297.29" x2="2226.56" y2="297.29" gradientTransform="translate(2249.4) rotate(-180) scale(1 -1)" xlink:href="#linear-gradient"/></defs><g id="Layer_1-2"><path class="cls-18" d="M.32,522.01c185.36-9.64,362.15,119.88,545.21,89.19,133.81-22.43,237.6-125.04,356.69-190.05,169.55-92.55,372.66-107.98,563.78-79.91,191.11,28.07,373.56,96.75,554.27,164.97"/><path class="cls-63" d="M.32,515.58c185.36-9.64,362.15,119.88,545.21,89.19,133.81-22.43,237.6-125.04,356.69-190.05,169.55-92.55,372.66-107.98,563.78-79.91s373.56,96.75,554.27,164.97"/><path class="cls-81" d="M.31,509.15c185.36-9.64,362.15,119.88,545.21,89.19,133.81-22.43,237.6-125.04,356.69-190.05,169.55-92.55,372.66-107.98,563.78-79.91,191.11,28.07,373.56,96.75,554.27,164.97"/><path class="cls-62" d="M.31,502.71c185.36-9.64,362.15,119.88,545.21,89.19,133.81-22.43,237.6-125.04,356.69-190.05,169.55-92.55,372.66-107.98,563.78-79.91,191.11,28.07,373.56,96.75,554.27,164.97"/><path class="cls-74" d="M.3,496.28c185.36-9.64,362.15,119.88,545.21,89.19,133.81-22.43,237.6-125.04,356.69-190.05,169.55-92.55,372.66-107.98,563.78-79.91,191.11,28.07,373.56,96.75,554.27,164.97"/><path class="cls-15" d="M.29,489.84c185.36-9.64,362.15,119.88,545.21,89.19,133.81-22.43,237.6-125.04,356.69-190.05,169.55-92.55,372.66-107.98,563.78-79.91,191.11,28.07,373.56,96.75,554.27,164.97"/><path class="cls-92" d="M.29,483.41c185.36-9.64,362.15,119.88,545.21,89.19,133.81-22.43,237.6-125.04,356.69-190.05,169.55-92.55,372.66-107.98,563.78-79.91,191.11,28.07,373.56,96.75,554.27,164.97"/><path class="cls-77" d="M.28,476.98c185.36-9.64,362.15,119.88,545.21,89.19,133.81-22.43,237.6-125.04,356.69-190.05,169.55-92.55,372.66-107.98,563.78-79.91,191.11,28.07,373.56,96.75,554.27,164.97"/><path class="cls-72" d="M.28,470.54c185.36-9.64,362.15,119.88,545.21,89.19,133.81-22.43,237.6-125.04,356.69-190.05,169.55-92.55,372.66-107.98,563.78-79.91,191.11,28.07,373.56,96.75,554.27,164.97"/><path class="cls-9" d="M.27,464.11c185.36-9.64,362.15,119.88,545.21,89.19,133.81-22.43,237.6-125.04,356.69-190.05,169.55-92.55,372.66-107.98,563.78-79.91,191.11,28.07,373.56,96.75,554.27,164.97"/><path class="cls-3" d="M.26,457.68c185.36-9.64,362.15,119.88,545.21,89.19,133.81-22.43,237.6-125.04,356.69-190.05,169.55-92.55,372.66-107.98,563.78-79.91,191.11,28.07,373.56,96.75,554.27,164.97"/><path class="cls-14" d="M.26,451.24c185.36-9.64,362.15,119.88,545.21,89.19,133.81-22.43,237.6-125.04,356.69-190.05,169.55-92.55,372.66-107.98,563.78-79.91,191.11,28.07,373.56,96.75,554.27,164.97"/><path class="cls-43" d="M.25,444.81c185.36-9.64,362.15,119.88,545.21,89.19,133.81-22.43,237.6-125.04,356.69-190.05,169.55-92.55,372.66-107.98,563.78-79.91,191.11,28.07,373.56,96.75,554.27,164.97"/><path class="cls-103" d="M.25,438.37c185.36-9.64,362.15,119.88,545.21,89.19,133.81-22.43,237.6-125.04,356.69-190.05,169.55-92.55,372.66-107.98,563.78-79.91,191.11,28.07,373.56,96.75,554.27,164.97"/><path class="cls-11" d="M.24,431.94c185.36-9.64,362.15,119.88,545.21,89.19,133.81-22.43,237.6-125.04,356.69-190.05,169.55-92.55,372.66-107.98,563.78-79.91,191.11,28.07,373.56,96.75,554.27,164.97"/><path class="cls-38" d="M.24,425.51c185.36-9.64,362.15,119.88,545.21,89.19,133.81-22.43,237.6-125.04,356.69-190.05,169.55-92.55,372.66-107.98,563.78-79.91,191.11,28.07,373.56,96.75,554.27,164.97"/><path class="cls-89" d="M.23,419.07c185.36-9.64,362.15,119.88,545.21,89.19,133.81-22.43,237.6-125.04,356.69-190.05,169.55-92.55,372.66-107.98,563.78-79.91,191.11,28.07,373.56,96.75,554.27,164.97"/><path class="cls-104" d="M.22,412.64c185.36-9.64,362.15,119.88,545.21,89.19,133.81-22.43,237.6-125.04,356.69-190.05,169.55-92.55,372.66-107.98,563.78-79.91,191.11,28.07,373.56,96.75,554.27,164.97"/><path class="cls-82" d="M.22,406.21c185.36-9.64,362.15,119.88,545.21,89.19,133.81-22.43,237.6-125.04,356.69-190.05,169.55-92.55,372.66-107.98,563.78-79.91,191.11,28.07,373.56,96.75,554.27,164.97"/><path class="cls-96" d="M.21,399.77c185.36-9.64,362.15,119.88,545.21,89.19,133.81-22.43,237.6-125.04,356.69-190.05,169.55-92.55,372.66-107.98,563.78-79.91,191.11,28.07,373.56,96.75,554.27,164.97"/><path class="cls-90" d="M.21,393.34c185.36-9.64,362.15,119.88,545.21,89.19,133.81-22.43,237.6-125.04,356.69-190.05,169.55-92.55,372.66-107.98,563.78-79.91,191.11,28.07,373.56,96.75,554.27,164.97"/><path class="cls-79" d="M.2,386.9c185.36-9.64,362.15,119.88,545.21,89.19,133.81-22.43,237.6-125.04,356.69-190.05,169.55-92.55,372.66-107.98,563.78-79.91,191.11,28.07,373.56,96.75,554.27,164.97"/><path class="cls-22" d="M.2,380.47c185.36-9.64,362.15,119.88,545.21,89.19,133.81-22.43,237.6-125.04,356.69-190.05,169.55-92.55,372.66-107.98,563.78-79.91,191.11,28.07,373.56,96.75,554.27,164.97"/><path class="cls-49" d="M.19,374.04c185.36-9.64,362.15,119.88,545.21,89.19,133.81-22.43,237.6-125.04,356.69-190.05,169.55-92.55,372.66-107.98,563.78-79.91,191.11,28.07,373.56,96.75,554.27,164.97"/><path class="cls-75" d="M.18,367.6c185.36-9.64,362.15,119.88,545.21,89.19,133.81-22.43,237.6-125.04,356.69-190.05,169.55-92.55,372.66-107.98,563.78-79.91,191.11,28.07,373.56,96.75,554.27,164.97"/><path class="cls-21" d="M.18,361.17c185.36-9.64,362.15,119.88,545.21,89.19,133.81-22.43,237.6-125.04,356.69-190.05,169.55-92.55,372.66-107.98,563.78-79.91,191.11,28.07,373.56,96.75,554.27,164.97"/><path class="cls-102" d="M.17,354.74c185.36-9.64,362.15,119.88,545.21,89.19,133.81-22.43,237.6-125.04,356.69-190.05,169.55-92.55,372.66-107.98,563.78-79.91s373.56,96.75,554.27,164.97"/><path class="cls-80" d="M.17,348.3c185.36-9.64,362.15,119.88,545.21,89.19,133.81-22.43,237.6-125.04,356.69-190.05,169.55-92.55,372.66-107.98,563.78-79.91,191.11,28.07,373.56,96.75,554.27,164.97"/><path class="cls-88" d="M.16,341.87c185.36-9.64,362.15,119.88,545.21,89.19,133.81-22.43,237.6-125.04,356.69-190.05,169.55-92.55,372.66-107.98,563.78-79.91,191.11,28.07,373.56,96.75,554.27,164.97"/><path class="cls-59" d="M.15,335.43c185.36-9.64,362.15,119.88,545.21,89.19,133.81-22.43,237.6-125.04,356.69-190.05,169.55-92.55,372.66-107.98,563.78-79.91,191.11,28.07,373.56,96.75,554.27,164.97"/><path class="cls-70" d="M.15,329c185.36-9.64,362.15,119.88,545.21,89.19,133.81-22.43,237.6-125.04,356.69-190.05,169.55-92.55,372.66-107.98,563.78-79.91,191.11,28.07,373.56,96.75,554.27,164.97"/><path class="cls-41" d="M.14,322.57c185.36-9.64,362.15,119.88,545.21,89.19,133.81-22.43,237.6-125.04,356.69-190.05,169.55-92.55,372.66-107.98,563.78-79.91s373.56,96.75,554.27,164.97"/><path class="cls-42" d="M.14,316.13c185.36-9.64,362.15,119.88,545.21,89.19,133.81-22.43,237.6-125.04,356.69-190.05,169.55-92.55,372.66-107.98,563.78-79.91,191.11,28.07,373.56,96.75,554.27,164.97"/><path class="cls-66" d="M.13,309.7c185.36-9.64,362.15,119.88,545.21,89.19,133.81-22.43,237.6-125.04,356.69-190.05,169.55-92.55,372.66-107.98,563.78-79.91,191.11,28.07,373.56,96.75,554.27,164.97"/><path class="cls-36" d="M.13,303.27c185.36-9.64,362.15,119.88,545.21,89.19,133.81-22.43,237.6-125.04,356.69-190.05,169.55-92.55,372.66-107.98,563.78-79.91,191.11,28.07,373.56,96.75,554.27,164.97"/><path class="cls-61" d="M.12,296.83c185.36-9.64,362.15,119.88,545.21,89.19,133.81-22.43,237.6-125.04,356.69-190.05,169.55-92.55,372.66-107.98,563.78-79.91,191.11,28.07,373.56,96.75,554.27,164.97"/><path class="cls-47" d="M.11,290.4c185.36-9.64,362.15,119.88,545.21,89.19,133.81-22.43,237.6-125.04,356.69-190.05,169.55-92.55,372.66-107.98,563.78-79.91,191.11,28.07,373.56,96.75,554.27,164.97"/><path class="cls-52" d="M.11,283.96c185.36-9.64,362.15,119.88,545.21,89.19,133.81-22.43,237.6-125.04,356.69-190.05,169.55-92.55,372.66-107.98,563.78-79.91,191.11,28.07,373.56,96.75,554.27,164.97"/><path class="cls-25" d="M.1,277.53c185.36-9.64,362.15,119.88,545.21,89.19,133.81-22.43,237.6-125.04,356.69-190.05,169.55-92.55,372.66-107.98,563.78-79.91,191.11,28.07,373.56,96.75,554.27,164.97"/><path class="cls-68" d="M.1,271.1c185.36-9.64,362.15,119.88,545.21,89.19,133.81-22.43,237.6-125.04,356.69-190.05,169.55-92.55,372.66-107.98,563.78-79.91,191.11,28.07,373.56,96.75,554.27,164.97"/><path class="cls-33" d="M.09,264.66c185.36-9.64,362.15,119.88,545.21,89.19,133.81-22.43,237.6-125.04,356.69-190.05,169.55-92.55,372.66-107.98,563.78-79.91,191.11,28.07,373.56,96.75,554.27,164.97"/><path class="cls-85" d="M.08,258.23c185.36-9.64,362.15,119.88,545.21,89.19,133.81-22.43,237.6-125.04,356.69-190.05,169.55-92.55,372.66-107.98,563.78-79.91,191.11,28.07,373.56,96.75,554.27,164.97"/><path class="cls-93" d="M.08,251.79c185.36-9.64,362.15,119.88,545.21,89.19,133.81-22.43,237.6-125.04,356.69-190.05,169.55-92.55,372.66-107.98,563.78-79.91,191.11,28.07,373.56,96.75,554.27,164.97"/><path class="cls-37" d="M.07,245.36c185.36-9.64,362.15,119.88,545.21,89.19,133.81-22.43,237.6-125.04,356.69-190.05,169.55-92.55,372.66-107.98,563.78-79.91,191.11,28.07,373.56,96.75,554.27,164.97"/><path class="cls-31" d="M.07,238.93c185.36-9.64,362.15,119.88,545.21,89.19,133.81-22.43,237.6-125.04,356.69-190.05,169.55-92.55,372.66-107.98,563.78-79.91,191.11,28.07,373.56,96.75,554.27,164.97"/><path class="cls-8" d="M.06,232.49c185.36-9.64,362.15,119.88,545.21,89.19,133.81-22.43,237.6-125.04,356.69-190.05,169.55-92.55,372.66-107.98,563.78-79.91,191.11,28.07,373.56,96.75,554.27,164.97"/><path class="cls-91" d="M.06,226.06c185.36-9.64,362.15,119.88,545.21,89.19,133.81-22.43,237.6-125.04,356.69-190.05,169.55-92.55,372.66-107.98,563.78-79.91,191.11,28.07,373.56,96.75,554.27,164.97"/><path class="cls-51" d="M.05,219.63c185.36-9.64,362.15,119.88,545.21,89.19,133.81-22.43,237.6-125.04,356.69-190.05,169.55-92.55,372.66-107.98,563.78-79.91,191.11,28.07,373.56,96.75,554.27,164.97"/><path class="cls-97" d="M.04,213.19c185.36-9.64,362.15,119.88,545.21,89.19,133.81-22.43,237.6-125.04,356.69-190.05C1071.49,19.79,1274.61,4.36,1465.72,32.42c191.11,28.07,373.56,96.75,554.27,164.97"/><path class="cls-27" d="M.04,206.76c185.36-9.64,362.15,119.88,545.21,89.19,133.81-22.43,237.6-125.04,356.69-190.05C1071.49,13.36,1274.6-2.08,1465.71,25.99c191.11,28.07,373.56,96.75,554.27,164.97"/><path class="cls-67" d="M.03,200.32c185.36-9.64,362.15,119.88,545.21,89.19,133.81-22.43,237.6-125.04,356.69-190.05C1071.48,6.92,1274.59-8.51,1465.71,19.56c191.11,28.07,373.56,96.75,554.27,164.97"/><path class="cls-87" d="M.03,193.89c185.36-9.64,362.15,119.88,545.21,89.19,133.81-22.43,237.6-125.04,356.69-190.05C1071.47.49,1274.59-14.94,1465.7,13.12c191.11,28.07,373.56,96.75,554.27,164.97"/><path class="cls-95" d="M2042.53,596.83c-185.36-7.64-362.15,95.03-545.21,70.7-133.81-17.78-237.6-99.12-356.69-150.65-169.55-73.37-372.66-85.6-563.78-63.35-191.11,22.25-373.56,76.69-554.27,130.77"/><path class="cls-26" d="M2042.53,591.73c-185.36-7.64-362.15,95.03-545.21,70.7-133.81-17.78-237.6-99.12-356.69-150.65-169.55-73.37-372.66-85.6-563.78-63.35-191.11,22.25-373.56,76.69-554.27,130.77"/><path class="cls-16" d="M2042.54,586.63c-185.36-7.64-362.15,95.03-545.21,70.7-133.81-17.78-237.6-99.12-356.69-150.65-169.55-73.37-372.66-85.6-563.78-63.35-191.11,22.25-373.56,76.69-554.27,130.77"/><path class="cls-94" d="M2042.55,581.53c-185.36-7.64-362.15,95.03-545.21,70.7-133.81-17.78-237.6-99.12-356.69-150.65-169.55-73.37-372.66-85.6-563.78-63.35-191.11,22.25-373.56,76.69-554.27,130.77"/><path class="cls-23" d="M2042.55,576.43c-185.36-7.64-362.15,95.03-545.21,70.7-133.81-17.78-237.6-99.12-356.69-150.65-169.55-73.37-372.66-85.6-563.78-63.35-191.11,22.25-373.56,76.69-554.27,130.77"/><path class="cls-54" d="M2042.56,571.33c-185.36-7.64-362.15,95.03-545.21,70.7-133.81-17.78-237.6-99.12-356.69-150.65-169.55-73.37-372.66-85.6-563.78-63.35-191.11,22.25-373.56,76.69-554.27,130.77"/><path class="cls-12" d="M2042.56,566.23c-185.36-7.64-362.15,95.03-545.21,70.7-133.81-17.78-237.6-99.12-356.69-150.65-169.55-73.37-372.66-85.6-563.78-63.35-191.11,22.25-373.56,76.69-554.27,130.77"/><path class="cls-2" d="M2042.57,561.13c-185.36-7.64-362.15,95.03-545.21,70.7-133.81-17.78-237.6-99.12-356.69-150.65-169.55-73.37-372.66-85.6-563.78-63.35-191.11,22.25-373.56,76.69-554.27,130.77"/><path class="cls-19" d="M2042.57,556.03c-185.36-7.64-362.15,95.03-545.21,70.7-133.81-17.78-237.6-99.12-356.69-150.65-169.55-73.37-372.66-85.6-563.78-63.35S203.34,489.42,22.62,543.5"/><path class="cls-40" d="M2042.58,550.93c-185.36-7.64-362.15,95.03-545.21,70.7-133.81-17.78-237.6-99.12-356.69-150.65-169.55-73.37-372.66-85.6-563.78-63.35-191.11,22.25-373.56,76.69-554.27,130.77"/><path class="cls-48" d="M2042.59,545.83c-185.36-7.64-362.15,95.03-545.21,70.7-133.81-17.78-237.6-99.12-356.69-150.65-169.55-73.37-372.66-85.6-563.78-63.35-191.11,22.25-373.56,76.69-554.27,130.77"/><path class="cls-30" d="M2042.59,540.73c-185.36-7.64-362.15,95.03-545.21,70.7-133.81-17.78-237.6-99.12-356.69-150.65-169.55-73.37-372.66-85.6-563.78-63.35-191.11,22.25-373.56,76.69-554.27,130.77"/><path class="cls-20" d="M2042.6,535.63c-185.36-7.64-362.15,95.03-545.21,70.7-133.81-17.78-237.6-99.12-356.69-150.65-169.55-73.37-372.66-85.6-563.78-63.35-191.11,22.25-373.56,76.69-554.27,130.77"/><path class="cls-83" d="M2042.6,530.52c-185.36-7.64-362.15,95.03-545.21,70.7-133.81-17.78-237.6-99.12-356.69-150.65-169.55-73.37-372.66-85.6-563.78-63.35-191.11,22.25-373.56,76.69-554.27,130.77"/><path class="cls-56" d="M2042.61,525.42c-185.36-7.64-362.15,95.03-545.21,70.7-133.81-17.78-237.6-99.12-356.69-150.65-169.55-73.37-372.66-85.6-563.78-63.35-191.11,22.25-373.56,76.69-554.27,130.77"/><path class="cls-99" d="M2042.62,520.32c-185.36-7.64-362.15,95.03-545.21,70.7-133.81-17.78-237.6-99.12-356.69-150.65-169.55-73.37-372.66-85.6-563.78-63.35-191.11,22.25-373.56,76.69-554.27,130.77"/><path class="cls-13" d="M2042.62,515.22c-185.36-7.64-362.15,95.03-545.21,70.7-133.81-17.78-237.6-99.12-356.69-150.65-169.55-73.37-372.66-85.6-563.78-63.35-191.11,22.25-373.56,76.69-554.27,130.77"/><path class="cls-50" d="M2042.63,510.12c-185.36-7.64-362.15,95.03-545.21,70.7-133.81-17.78-237.6-99.12-356.69-150.65-169.55-73.37-372.66-85.6-563.78-63.35-191.11,22.25-373.56,76.69-554.27,130.77"/><path class="cls-73" d="M2042.63,505.02c-185.36-7.64-362.15,95.03-545.21,70.7-133.81-17.78-237.6-99.12-356.69-150.65-169.55-73.37-372.66-85.6-563.78-63.35-191.11,22.25-373.56,76.69-554.27,130.77"/><path class="cls-76" d="M2042.64,499.92c-185.36-7.64-362.15,95.03-545.21,70.7-133.81-17.78-237.6-99.12-356.69-150.65-169.55-73.37-372.66-85.6-563.78-63.35-191.11,22.25-373.56,76.69-554.27,130.77"/><path class="cls-1" d="M2042.64,494.82c-185.36-7.64-362.15,95.03-545.21,70.7-133.81-17.78-237.6-99.12-356.69-150.65-169.55-73.37-372.66-85.6-563.78-63.35-191.11,22.25-373.56,76.69-554.27,130.77"/><path class="cls-84" d="M2042.65,489.72c-185.36-7.64-362.15,95.03-545.21,70.7-133.81-17.78-237.6-99.12-356.69-150.65-169.55-73.37-372.66-85.6-563.78-63.35-191.11,22.25-373.56,76.69-554.27,130.77"/><path class="cls-24" d="M2042.66,484.62c-185.36-7.64-362.15,95.03-545.21,70.7-133.81-17.78-237.6-99.12-356.69-150.65-169.55-73.37-372.66-85.6-563.78-63.35-191.11,22.25-373.56,76.69-554.27,130.77"/><path class="cls-86" d="M2042.66,479.52c-185.36-7.64-362.15,95.03-545.21,70.7-133.81-17.78-237.6-99.12-356.69-150.65-169.55-73.37-372.66-85.6-563.78-63.35-191.11,22.25-373.56,76.69-554.27,130.77"/><path class="cls-78" d="M2042.67,474.42c-185.36-7.64-362.15,95.03-545.21,70.7-133.81-17.78-237.6-99.12-356.69-150.65-169.55-73.37-372.66-85.6-563.78-63.35-191.11,22.25-373.56,76.69-554.27,130.77"/><path class="cls-7" d="M2042.67,469.32c-185.36-7.64-362.15,95.03-545.21,70.7-133.81-17.78-237.6-99.12-356.69-150.65-169.55-73.37-372.66-85.6-563.78-63.35S203.44,402.72,22.72,456.8"/><path class="cls-71" d="M2042.68,464.22c-185.36-7.64-362.15,95.03-545.21,70.7-133.81-17.78-237.6-99.12-356.69-150.65-169.55-73.37-372.66-85.6-563.78-63.35-191.11,22.25-373.56,76.69-554.27,130.77"/><path class="cls-4" d="M2042.69,459.12c-185.36-7.64-362.15,95.03-545.21,70.7-133.81-17.78-237.6-99.12-356.69-150.65-169.55-73.37-372.66-85.6-563.78-63.35-191.11,22.25-373.56,76.69-554.27,130.77"/><path class="cls-45" d="M2042.69,454.02c-185.36-7.64-362.15,95.03-545.21,70.7-133.81-17.78-237.6-99.12-356.69-150.65-169.55-73.37-372.66-85.6-563.78-63.35-191.11,22.25-373.56,76.69-554.27,130.77"/><path class="cls-98" d="M2042.7,448.92c-185.36-7.64-362.15,95.03-545.21,70.7-133.81-17.78-237.6-99.12-356.69-150.65-169.55-73.37-372.66-85.6-563.78-63.35-191.11,22.25-373.56,76.69-554.27,130.77"/><path class="cls-35" d="M2042.7,443.82c-185.36-7.64-362.15,95.03-545.21,70.7-133.81-17.78-237.6-99.12-356.69-150.65-169.55-73.37-372.66-85.6-563.78-63.35-191.11,22.25-373.56,76.69-554.27,130.77"/><path class="cls-6" d="M2042.71,438.72c-185.36-7.64-362.15,95.03-545.21,70.7-133.81-17.78-237.6-99.12-356.69-150.65-169.55-73.37-372.66-85.6-563.78-63.35-191.11,22.25-373.56,76.69-554.27,130.77"/><path class="cls-69" d="M2042.71,433.62c-185.36-7.64-362.15,95.03-545.21,70.7-133.81-17.78-237.6-99.12-356.69-150.65-169.55-73.37-372.66-85.6-563.78-63.35-191.11,22.25-373.56,76.69-554.27,130.77"/><path class="cls-34" d="M2042.72,428.52c-185.36-7.64-362.15,95.03-545.21,70.7-133.81-17.78-237.6-99.12-356.69-150.65-169.55-73.37-372.66-85.6-563.78-63.35-191.11,22.25-373.56,76.69-554.27,130.77"/><path class="cls-17" d="M2042.73,423.42c-185.36-7.64-362.15,95.03-545.21,70.7-133.81-17.78-237.6-99.12-356.69-150.65-169.55-73.37-372.66-85.6-563.78-63.35-191.11,22.25-373.56,76.69-554.27,130.77"/><path class="cls-44" d="M2042.73,418.32c-185.36-7.64-362.15,95.03-545.21,70.7-133.81-17.78-237.6-99.12-356.69-150.65-169.55-73.37-372.66-85.6-563.78-63.35-191.11,22.25-373.56,76.69-554.27,130.77"/><path class="cls-53" d="M2042.74,413.22c-185.36-7.64-362.15,95.03-545.21,70.7-133.81-17.78-237.6-99.12-356.69-150.65-169.55-73.37-372.66-85.6-563.78-63.35-191.11,22.25-373.56,76.69-554.27,130.77"/><path class="cls-10" d="M2042.74,408.12c-185.36-7.64-362.15,95.03-545.21,70.7-133.81-17.78-237.6-99.12-356.69-150.65-169.55-73.37-372.66-85.6-563.78-63.35-191.11,22.25-373.56,76.69-554.27,130.77"/><path class="cls-65" d="M2042.75,403.02c-185.36-7.64-362.15,95.03-545.21,70.7-133.81-17.78-237.6-99.12-356.69-150.65-169.55-73.37-372.66-85.6-563.78-63.35-191.11,22.25-373.56,76.69-554.27,130.77"/><path class="cls-57" d="M2042.76,397.92c-185.36-7.64-362.15,95.03-545.21,70.7-133.81-17.78-237.6-99.12-356.69-150.65-169.55-73.37-372.66-85.6-563.78-63.35-191.11,22.25-373.56,76.69-554.27,130.77"/><path class="cls-58" d="M2042.76,392.82c-185.36-7.64-362.15,95.03-545.21,70.7-133.81-17.78-237.6-99.12-356.69-150.65-169.55-73.37-372.66-85.6-563.78-63.35-191.11,22.25-373.56,76.69-554.27,130.77"/><path class="cls-55" d="M2042.77,387.72c-185.36-7.64-362.15,95.03-545.21,70.7-133.81-17.78-237.6-99.12-356.69-150.65-169.55-73.37-372.66-85.6-563.78-63.35-191.11,22.25-373.56,76.69-554.27,130.77"/><path class="cls-64" d="M2042.77,382.62c-185.36-7.64-362.15,95.03-545.21,70.7-133.81-17.78-237.6-99.12-356.69-150.65-169.55-73.37-372.66-85.6-563.78-63.35-191.11,22.25-373.56,76.69-554.27,130.77"/><path class="cls-29" d="M2042.78,377.52c-185.36-7.64-362.15,95.03-545.21,70.7-133.81-17.78-237.6-99.12-356.69-150.65-169.55-73.37-372.66-85.6-563.78-63.35-191.11,22.25-373.56,76.69-554.27,130.77"/><path class="cls-100" d="M2042.78,372.42c-185.36-7.64-362.15,95.03-545.21,70.7-133.81-17.78-237.6-99.12-356.69-150.65-169.55-73.37-372.66-85.6-563.78-63.35-191.11,22.25-373.56,76.69-554.27,130.77"/><path class="cls-46" d="M2042.79,367.32c-185.36-7.64-362.15,95.03-545.21,70.7-133.81-17.78-237.6-99.12-356.69-150.65-169.55-73.37-372.66-85.6-563.78-63.35-191.11,22.25-373.56,76.69-554.27,130.77"/><path class="cls-5" d="M2042.8,362.22c-185.36-7.64-362.15,95.03-545.21,70.7-133.81-17.78-237.6-99.12-356.69-150.65-169.55-73.37-372.66-85.6-563.78-63.35-191.11,22.25-373.56,76.69-554.27,130.77"/><path class="cls-60" d="M2042.8,357.12c-185.36-7.64-362.15,95.03-545.21,70.7-133.81-17.78-237.6-99.12-356.69-150.65-169.55-73.37-372.66-85.6-563.78-63.35-191.11,22.25-373.56,76.69-554.27,130.77"/><path class="cls-39" d="M2042.81,352.02c-185.36-7.64-362.15,95.03-545.21,70.7-133.81-17.78-237.6-99.12-356.69-150.65-169.55-73.37-372.66-85.6-563.78-63.35-191.11,22.25-373.56,76.69-554.27,130.77"/><path class="cls-28" d="M2042.81,346.92c-185.36-7.64-362.15,95.03-545.21,70.7-133.81-17.78-237.6-99.12-356.69-150.65-169.55-73.37-372.66-85.6-563.78-63.35-191.11,22.25-373.56,76.69-554.27,130.77"/><path class="cls-32" d="M2042.82,341.82c-185.36-7.64-362.15,95.03-545.21,70.7-133.81-17.78-237.6-99.12-356.69-150.65-169.55-73.37-372.66-85.6-563.78-63.35-191.11,22.25-373.56,76.69-554.27,130.77"/><path class="cls-101" d="M2042.83,336.72c-185.36-7.64-362.15,95.03-545.21,70.7-133.81-17.78-237.6-99.12-356.69-150.65-169.55-73.37-372.66-85.6-563.78-63.35-191.11,22.25-373.56,76.69-554.27,130.77"/></g></svg>