<svg xmlns="http://www.w3.org/2000/svg" width="57.958" height="57.957" viewBox="0 0 57.958 57.957">
  <path id="Icon_material-account-circle" data-name="Icon material-account-circle" d="M31.979,3A28.979,28.979,0,1,0,60.958,31.979,28.989,28.989,0,0,0,31.979,3Zm0,8.694a8.694,8.694,0,1,1-8.694,8.694A8.682,8.682,0,0,1,31.979,11.694Zm0,41.15a20.866,20.866,0,0,1-17.387-9.331c.087-5.767,11.592-8.925,17.387-8.925,5.767,0,17.3,3.159,17.387,8.925A20.867,20.867,0,0,1,31.979,52.843Z" transform="translate(-3 -3)" fill="#6cff96"/>
</svg>
