<svg xmlns="http://www.w3.org/2000/svg" width="57.967" height="57.958" viewBox="0 0 57.967 57.958">
  <path id="Icon_awesome-upload" data-name="Icon awesome-upload" d="M33.512,43.472H24.455a2.711,2.711,0,0,1-2.717-2.717V21.734H11.808a2.26,2.26,0,0,1-1.6-3.861L27.432.642a2.194,2.194,0,0,1,3.091,0L47.754,17.874a2.26,2.26,0,0,1-1.6,3.861H36.229v19.02A2.711,2.711,0,0,1,33.512,43.472Zm24.455-.906v12.68a2.711,2.711,0,0,1-2.717,2.717H2.717A2.711,2.711,0,0,1,0,55.246V42.566a2.711,2.711,0,0,1,2.717-2.717h15.4v.906a6.344,6.344,0,0,0,6.34,6.34h9.057a6.344,6.344,0,0,0,6.34-6.34v-.906h15.4A2.711,2.711,0,0,1,57.967,42.566ZM43.928,52.529a2.264,2.264,0,1,0-2.264,2.264A2.271,2.271,0,0,0,43.928,52.529Zm7.246,0a2.264,2.264,0,1,0-2.264,2.264A2.271,2.271,0,0,0,51.174,52.529Z" transform="translate(0 -0.005)" fill="#fff"/>
</svg>
